<svg viewBox="0 0 1024 1024" xmlns="http://www.w3.org/2000/svg"
     width="200" height="200" fill="currentColor">
    <path d="M851.437037 254.103704L580.266667 98.607407c-36.02963-20.859259-94.814815-20.859259-130.844445 0L180.148148 254.103704c-36.02963 20.859259-66.37037 72.059259-66.37037 113.777777v309.096297c0 41.718519 30.340741 92.918519 66.37037 113.777778l269.274074 155.496296c36.02963 20.859259 94.814815 20.859259 130.844445 0l269.274074-155.496296c36.02963-20.859259 66.37037-72.059259 66.37037-113.777778V367.881481c0-43.614815-28.444444-92.918519-64.474074-113.777777z m26.548148 420.977777c0 28.444444-22.755556 66.37037-47.407407 81.540741L561.303704 910.222222c-24.651852 13.274074-70.162963 13.274074-94.814815 0l-269.274074-155.496296C174.459259 741.451852 151.703704 703.525926 151.703704 675.081481V367.881481c0-28.444444 22.755556-66.37037 47.407407-81.54074L468.385185 132.740741c24.651852-13.274074 70.162963-13.274074 94.814815 0l269.274074 155.496296c24.651852 13.274074 47.407407 53.096296 47.407407 81.540741v305.303703z"/>
    <path d="M458.903704 411.496296h189.629629v34.133334h-189.629629zM405.807407 403.911111l24.651852-24.651852c-22.755556-26.548148-51.2-51.2-83.437037-75.851852L322.37037 328.059259c34.133333 26.548148 62.577778 51.2 83.437037 75.851852zM392.533333 665.6V449.422222h-106.192592v34.133334h72.059259v195.318518c0 7.585185-3.792593 15.17037-11.377778 20.859259l13.274074 32.237037c30.340741-20.859259 58.785185-47.407407 87.22963-75.851851l-9.481482-37.925926c-15.17037 18.962963-30.340741 34.133333-45.511111 47.407407zM629.57037 498.725926h-153.6v153.6h153.6v-153.6z m-34.133333 121.362963h-85.333333V530.962963h85.333333v89.125926z"/>
    <path d="M447.525926 352.711111H682.666667v335.644445c0 17.066667-7.585185 26.548148-24.651852 26.548148l-58.785185-1.896297 9.481481 34.133334h56.888889c34.133333 0 53.096296-17.066667 53.096296-49.303704v-379.259259H447.525926v34.133333z"/>
</svg>
