<svg viewBox="0 0 1024 1024" version="1.1" xmlns="http://www.w3.org/2000/svg"
     width="200" height="200" fill="currentColor">
    <path d="M658.54105572 700.98044683h129.52270757c14.31566792 0 25.90454121 11.53433801 25.90454122 25.76820224a25.85000594 25.85000594 0 0 1-25.90454122 25.79546989h-129.52270757v128.89554418a25.85000594 25.85000594 0 0 1-25.90454197 25.76820225 25.85000594 25.85000594 0 0 1-25.90454122-25.76820225v-128.89554418h-129.52270756a25.85000594 25.85000594 0 0 1-25.90454122-25.79546988c0-14.23386346 11.6161417-25.76820147 25.90454121-25.76820226h129.52270757v-128.89554419c0-14.26113188 11.6161417-25.79546988 25.90454122-25.79546988 14.31566792 0 25.90454121 11.53433801 25.90454197 25.79546988v128.8955442zM248.56760137 907.26240068c-15.4336534 0-30.81277075-2.94493727-44.14679214-10.5526915C182.87913789 884.38460042 171.04485277 862.24303487 171.04485277 834.34793374V184.03487119C171.04485277 160.39356859 184.1607315 138.14293095 205.26611525 126.063234c24.48660862-14.04298846 54.91762782-12.57051982 83.52169524 3.98111907 45.26477763 26.23175672 496.16740739 302.48324101 520.49040866 317.67148182 20.12373877 12.51598377 43.57416559 38.82954417 43.46509348 71.71467853-0.05453604 18.51493041-7.66229104 45.18297395-43.62870163 67.21546818l-52.89980025 32.69425781a26.0136133 26.0136133 0 0 1-35.69373114-8.28945289 25.71366621 25.71366621 0 0 1 8.34398892-35.5028561l53.06340841-32.77606228c8.67120443-5.31724797 18.97848487-13.6885053 19.00575328-23.50496286 0.02726764-10.33454885-9.81645757-22.08703028-19.14209301-27.86783272C758.39624568 476.81072518 305.55759281 199.41398854 262.71966193 174.60016441c-12.10696459-7.03512843-23.64130259-8.42579261-31.63080839-3.81751169a15.59726078 15.59726078 0 0 0-8.2349176 13.25221847v650.31306255c0 13.41582585 5.18090825 16.36076311 7.36234317 17.64235597 14.20659583 8.09857787 46.08281602 2.26323862 64.02511909-8.18038156 5.91714294-3.46302855 28.16778059-16.90612205 100.50962095-61.54373705a25.95907725 25.95907725 0 0 1 35.63919586 8.31672128 25.68639779 25.68639779 0 0 1-8.34398892 35.50285613 8296.67927677 8296.67927677 0 0 1-101.70941013 62.22543571c-16.08808365 9.35290309-44.01045241 18.95121724-71.76921458 18.95121646z"
          fill="currentColor"></path>
</svg>
