<svg class="size-6" fill="currentColor" viewBox="0 0 1251 1024" version="1.1" xmlns="http://www.w3.org/2000/svg" width="200" height="200">
    <path d="M730.680889 83.399111l418.816 334.791111C1178.225778 441.116444 1194.666667 475.363556 1194.666667 512c0 36.693333-16.440889 70.883556-45.056 93.809778l-418.872889 334.791111c-36.067556 29.013333-85.674667 34.702222-127.374222 14.563555a119.182222 119.182222 0 0 1-68.266667-108.316444v-132.152889l-282.624 225.848889a119.637333 119.637333 0 0 1-127.317333 14.563556A119.239111 119.239111 0 0 1 56.888889 846.848V177.152c0-46.648889 26.168889-88.177778 68.266667-108.316444a119.637333 119.637333 0 0 1 127.317333 14.563555l282.624 225.962667V177.152c0-46.648889 26.112-88.177778 68.266667-108.316444a119.637333 119.637333 0 0 1 127.317333 14.563555z m-56.888889 59.505778a36.750222 36.750222 0 0 0-35.157333-0.625778 36.807111 36.807111 0 0 0-22.016 34.872889v224.312889l-0.455111 6.030222a37.205333 37.205333 0 0 1-60.017778 22.983111L201.443556 147.000889l-5.859556-4.039111a36.750222 36.750222 0 0 0-35.157333-0.625778 36.920889 36.920889 0 0 0-22.016 34.929778v669.639111l0.568889 7.111111c2.161778 13.653333 10.695111 22.755556 21.447111 27.875556 13.368889 6.826667 29.582222 5.006222 41.016889-4.721778l354.702222-283.704889 5.290666-3.527111a37.148444 37.148444 0 0 1 11.776-4.152889l6.257778-0.512 6.712889 0.568889a37.376 37.376 0 0 1 30.549333 36.636444v224.312889l0.512 7.111111c2.218667 13.653333 10.695111 22.641778 21.390223 27.818667 13.368889 6.883556 29.582222 5.006222 41.073777-4.778667L1098.524444 542.151111l5.575112-5.233778a37.376 37.376 0 0 0 8.988444-25.031111 37.376 37.376 0 0 0-14.506667-30.151111L679.822222 146.887111l-5.973333-3.982222z"
          p-id="4892"></path>
</svg>
